<svg width="512" height="512" viewBox="0 0 512 512" fill="none" xmlns="http://www.w3.org/2000/svg">
  <defs>
    <linearGradient id="grad1" x1="0%" y1="0%" x2="100%" y2="100%">
      <stop offset="0%" stop-color="#f27f0d" />
      <stop offset="100%" stop-color="#fb923c" />
    </linearGradient>
    <filter id="shadow" x="-20%" y="-20%" width="140%" height="140%">
      <feDropShadow dx="0" dy="4" stdDeviation="8" flood-color="rgba(242, 127, 13, 0.3)" />
    </filter>
  </defs>
  
  <!-- Main shape: Smooth rounded square/squircle background -->
  <rect x="32" y="32" width="448" height="448" rx="128" fill="url(#grad1)" filter="url(#shadow)" />
  
  <!-- Icon: Stylized Shield/Lock hybrid -->
  <path d="M256 120 C 180 120, 160 180, 160 180 V 240 H 140 V 360 H 372 V 240 H 352 V 180 C 352 180, 332 120, 256 120 Z M 256 160 C 290 160, 312 185, 312 240 H 200 C 200 185, 222 160, 256 160 Z M 256 280 A 20 20 0 1 0 256 320 A 20 20 0 1 0 256 280 Z" 
        fill="white" 
        opacity="0.95" />
        
  <!-- Subtle overlay for gloss effect -->
  <path d="M32 160 Q 256 250 480 160 L 480 160 A 128 128 0 0 1 480 160 V 32 A 128 128 0 0 0 32 32 Z" fill="white" opacity="0.1" />
</svg>
